<svg width="20" height="20" viewBox="0 0 20 20" fill="none" xmlns="http://www.w3.org/2000/svg">
<g clip-path="url(#clip1_164_9)">
<path d="M19.2369 8.83873H10.2009V12.4387H15.3609C15.1449 13.6387 14.4729 14.2147 13.4409 14.8867V17.2987H16.5609C17.5046 16.3883 18.2466 15.2897 18.7386 14.0742C19.2306 12.8586 19.4617 11.5533 19.4169 10.2427C19.4169 9.55873 19.3569 9.45073 19.2369 8.82673V8.83873Z" fill="#4285F4"/>
<path d="M10.2009 19.6387C12.7929 19.6387 14.9649 18.7747 16.5609 17.3107L13.4409 14.9107C12.7001 15.3921 11.8585 15.6967 10.9811 15.8008C10.1038 15.9049 9.21427 15.8058 8.38136 15.5111C7.54846 15.2165 6.79449 14.7342 6.17779 14.1015C5.5611 13.4689 5.09819 12.7029 4.82489 11.8627H1.62089V14.3467C2.41975 15.9376 3.64522 17.275 5.16038 18.2096C6.67554 19.1441 8.42071 19.6389 10.2009 19.6387Z" fill="#34A853"/>
<path d="M4.82489 11.8627C4.42965 10.6789 4.42965 9.39862 4.82489 8.21474V5.73074H1.62089C0.949592 7.06758 0.6 8.54281 0.6 10.0387C0.6 11.5347 0.949592 13.0099 1.62089 14.3467L4.82489 11.8627Z" fill="#FBBC05"/>
<path d="M10.2009 4.25474C11.6049 4.25474 12.8769 4.73474 13.8729 5.69474L16.6329 2.93474C15.5378 1.94289 14.2286 1.21719 12.8072 0.81413C11.3858 0.411072 9.89049 0.341539 8.43779 0.610944C6.98509 0.880349 5.61418 1.48142 4.4318 2.36736C3.24942 3.2533 2.28748 4.40019 1.62089 5.71874L4.82489 8.22674C5.19395 7.08716 5.91122 6.09207 6.87567 5.38166C7.84011 4.67124 9.00313 4.28129 10.2009 4.26674V4.25474Z" fill="#EA4335"/>
</g>
<defs>
<clipPath id="clip1_164_9">
<rect width="19" height="20" fill="white" transform="translate(0.6 0.45)"/>
</clipPath>
</defs>
</svg>
